<svg width="66" height="65" viewBox="0 0 66 65" fill="none" xmlns="http://www.w3.org/2000/svg">
<g clip-path="url(#clip0_70_1808)">
<path d="M58.8185 19.2609C58.8597 19.8383 58.8597 20.4158 58.8597 20.9932C58.8597 38.6041 45.4556 58.896 20.9569 58.896C13.4092 58.896 6.39786 56.71 0.5 52.9158C1.57237 53.0394 2.60336 53.0807 3.71699 53.0807C9.94468 53.0807 15.6776 50.9773 20.2557 47.3891C14.3991 47.2654 9.49108 43.4297 7.80006 38.1505C8.625 38.2742 9.44982 38.3567 10.316 38.3567C11.512 38.3567 12.7082 38.1916 13.8217 37.9031C7.71767 36.6657 3.13948 31.3041 3.13948 24.8288V24.6639C4.91289 25.6538 6.97525 26.2724 9.161 26.3548C5.57279 23.9626 3.222 19.8795 3.222 15.2602C3.222 12.7857 3.88178 10.5173 5.03667 8.53756C11.5944 16.6213 21.4517 21.9004 32.5049 22.4779C32.2987 21.488 32.1749 20.4571 32.1749 19.4259C32.1749 12.0845 38.1141 6.10425 45.4966 6.10425C49.3323 6.10425 52.7967 7.71274 55.2301 10.3111C58.2408 9.73371 61.1279 8.62008 63.6851 7.0941C62.6951 10.1874 60.5918 12.7858 57.8285 14.4354C60.5094 14.1469 63.1077 13.4043 65.4998 12.3733C63.6853 15.0128 61.4168 17.3636 58.8185 19.2609Z" fill="#F8FEFF"/>
</g>
<defs>
<clipPath id="clip0_70_1808">
<rect width="65" height="65" fill="white" transform="translate(0.5)"/>
</clipPath>
</defs>
</svg>
