<svg width="66" height="65" viewBox="0 0 66 65" fill="none" xmlns="http://www.w3.org/2000/svg">
<path d="M62.5271 17.6134C61.8183 14.9446 59.7299 12.8427 57.0783 12.1294C52.2722 10.8333 33 10.8333 33 10.8333C33 10.8333 13.728 10.8333 8.92171 12.1294C6.27014 12.8428 4.18179 14.9446 3.47299 17.6134C2.18518 22.4509 2.18518 32.5437 2.18518 32.5437C2.18518 32.5437 2.18518 42.6365 3.47299 47.4739C4.18179 50.1428 6.27014 52.1571 8.92171 52.8704C13.728 54.1666 33 54.1666 33 54.1666C33 54.1666 52.2721 54.1666 57.0783 52.8704C59.7299 52.1571 61.8183 50.1428 62.5271 47.4739C63.8149 42.6365 63.8149 32.5437 63.8149 32.5437C63.8149 32.5437 63.8149 22.4509 62.5271 17.6134ZM26.6969 41.7072V23.3802L42.8046 32.5439L26.6969 41.7072Z" fill="#F8FEFF"/>
</svg>
