<svg width="66" height="65" viewBox="0 0 66 65" fill="none" xmlns="http://www.w3.org/2000/svg">
<path d="M33.0127 17.9004C24.9385 17.9004 18.4258 24.4131 18.4258 32.4873C18.4258 40.5615 24.9385 47.0742 33.0127 47.0742C41.0869 47.0742 47.5996 40.5615 47.5996 32.4873C47.5996 24.4131 41.0869 17.9004 33.0127 17.9004ZM33.0127 41.9707C27.7949 41.9707 23.5293 37.7178 23.5293 32.4873C23.5293 27.2568 27.7822 23.0039 33.0127 23.0039C38.2432 23.0039 42.4961 27.2568 42.4961 32.4873C42.4961 37.7178 38.2305 41.9707 33.0127 41.9707ZM51.5986 17.3037C51.5986 19.1953 50.0752 20.7061 48.1963 20.7061C46.3047 20.7061 44.7939 19.1826 44.7939 17.3037C44.7939 15.4248 46.3174 13.9014 48.1963 13.9014C50.0752 13.9014 51.5986 15.4248 51.5986 17.3037ZM61.2598 20.7568C61.0439 16.1992 60.0029 12.1621 56.6641 8.83594C53.3379 5.50977 49.3008 4.46875 44.7432 4.24023C40.0459 3.97363 25.9668 3.97363 21.2695 4.24023C16.7246 4.45605 12.6875 5.49707 9.34863 8.82324C6.00977 12.1494 4.98145 16.1865 4.75293 20.7441C4.48633 25.4414 4.48633 39.5205 4.75293 44.2178C4.96875 48.7754 6.00977 52.8125 9.34863 56.1387C12.6875 59.4649 16.7119 60.5059 21.2695 60.7344C25.9668 61.001 40.0459 61.001 44.7432 60.7344C49.3008 60.5186 53.3379 59.4776 56.6641 56.1387C59.9902 52.8125 61.0313 48.7754 61.2598 44.2178C61.5264 39.5205 61.5264 25.4541 61.2598 20.7568ZM55.1914 49.2578C54.2012 51.7461 52.2842 53.6631 49.7832 54.666C46.0381 56.1514 37.1514 55.8086 33.0127 55.8086C28.874 55.8086 19.9746 56.1387 16.2422 54.666C13.7539 53.6758 11.8369 51.7588 10.834 49.2578C9.34863 45.5127 9.69141 36.626 9.69141 32.4873C9.69141 28.3486 9.36133 19.4492 10.834 15.7168C11.8242 13.2285 13.7412 11.3115 16.2422 10.3086C19.9873 8.82324 28.874 9.16602 33.0127 9.16602C37.1514 9.16602 46.0508 8.83594 49.7832 10.3086C52.2715 11.2988 54.1885 13.2158 55.1914 15.7168C56.6768 19.4619 56.334 28.3486 56.334 32.4873C56.334 36.626 56.6768 45.5254 55.1914 49.2578Z" fill="#F8FEFF"/>
</svg>
